<svg width="12" height="12" viewBox="0 0 41 40" fill="none" xmlns="http://www.w3.org/2000/svg" class="w-3.5 md:w-10">
                                <g clip-path="url(#clip0_11012_2980)">
                                <path d="M12.0312 5.39062V2.8125C12.0312 2.16531 11.5066 1.64062 10.8594 1.64062C10.2122 1.64062 9.6875 2.16531 9.6875 2.8125V5.39062H12.0312Z" fill="#001732"></path>
                                <path d="M22.0312 5.39062V2.8125C22.0312 2.16531 21.5066 1.64062 20.8594 1.64062C20.2122 1.64062 19.6875 2.16531 19.6875 2.8125V5.39062H22.0312Z" fill="#001732"></path>
                                <path d="M40.8594 14.1406V8.90625C40.8594 6.96773 39.2823 5.39062 37.3438 5.39062H32.0312V10.3125C32.0312 10.9597 31.5066 11.4844 30.8594 11.4844C30.2122 11.4844 29.6875 10.9597 29.6875 10.3125C29.6875 8.4232 29.6875 6.92266 29.6875 5.39062H22.0312V10.3125C22.0312 10.9597 21.5066 11.4844 20.8594 11.4844C20.2122 11.4844 19.6875 10.9597 19.6875 10.3125C19.6875 8.78609 19.6875 6.9182 19.6875 5.39062H12.0312V10.3125C12.0312 10.9597 11.5066 11.4844 10.8594 11.4844C10.2122 11.4844 9.6875 10.9597 9.6875 10.3125C9.6875 8.4232 9.6875 6.92266 9.6875 5.39062H4.375C2.43648 5.39062 0.859375 6.96773 0.859375 8.90625V14.1406H40.8594Z" fill="#001732"></path>
                                <path d="M32.0312 5.39062V2.8125C32.0312 2.16531 31.5066 1.64062 30.8594 1.64062C30.2122 1.64062 29.6875 2.16531 29.6875 2.8125V5.39062H32.0312Z" fill="#001732"></path>
                                <path d="M0.859375 16.4844V34.8438C0.859375 36.7823 2.43648 38.3594 4.375 38.3594H37.3438C39.2823 38.3594 40.8594 36.7823 40.8594 34.8438V16.4844H0.859375ZM8.98438 32.1094H7.73438C7.08719 32.1094 6.5625 31.5847 6.5625 30.9375C6.5625 30.2903 7.08719 29.7656 7.73438 29.7656H8.98438C9.63156 29.7656 10.1562 30.2903 10.1562 30.9375C10.1562 31.5847 9.63156 32.1094 8.98438 32.1094ZM8.98438 27.1094H7.73438C7.08719 27.1094 6.5625 26.5847 6.5625 25.9375C6.5625 25.2903 7.08719 24.7656 7.73438 24.7656H8.98438C9.63156 24.7656 10.1562 25.2903 10.1562 25.9375C10.1562 26.5847 9.63156 27.1094 8.98438 27.1094ZM8.98438 22.1094H7.73438C7.08719 22.1094 6.5625 21.5847 6.5625 20.9375C6.5625 20.2903 7.08719 19.7656 7.73438 19.7656H8.98438C9.63156 19.7656 10.1562 20.2903 10.1562 20.9375C10.1562 21.5847 9.63156 22.1094 8.98438 22.1094ZM15.2344 32.1094H13.9844C13.3372 32.1094 12.8125 31.5847 12.8125 30.9375C12.8125 30.2903 13.3372 29.7656 13.9844 29.7656H15.2344C15.8816 29.7656 16.4062 30.2903 16.4062 30.9375C16.4062 31.5847 15.8816 32.1094 15.2344 32.1094ZM15.2344 27.1094H13.9844C13.3372 27.1094 12.8125 26.5847 12.8125 25.9375C12.8125 25.2903 13.3372 24.7656 13.9844 24.7656H15.2344C15.8816 24.7656 16.4062 25.2903 16.4062 25.9375C16.4062 26.5847 15.8816 27.1094 15.2344 27.1094ZM15.2344 22.1094H13.9844C13.3372 22.1094 12.8125 21.5847 12.8125 20.9375C12.8125 20.2903 13.3372 19.7656 13.9844 19.7656H15.2344C15.8816 19.7656 16.4062 20.2903 16.4062 20.9375C16.4062 21.5847 15.8816 22.1094 15.2344 22.1094ZM21.4844 32.1094H20.2344C19.5872 32.1094 19.0625 31.5847 19.0625 30.9375C19.0625 30.2903 19.5872 29.7656 20.2344 29.7656H21.4844C22.1316 29.7656 22.6562 30.2903 22.6562 30.9375C22.6562 31.5847 22.1316 32.1094 21.4844 32.1094ZM21.4844 27.1094H20.2344C19.5872 27.1094 19.0625 26.5847 19.0625 25.9375C19.0625 25.2903 19.5872 24.7656 20.2344 24.7656H21.4844C22.1316 24.7656 22.6562 25.2903 22.6562 25.9375C22.6562 26.5847 22.1316 27.1094 21.4844 27.1094ZM21.4844 22.1094H20.2344C19.5872 22.1094 19.0625 21.5847 19.0625 20.9375C19.0625 20.2903 19.5872 19.7656 20.2344 19.7656H21.4844C22.1316 19.7656 22.6562 20.2903 22.6562 20.9375C22.6562 21.5847 22.1316 22.1094 21.4844 22.1094ZM27.7344 32.1094H26.4844C25.8372 32.1094 25.3125 31.5847 25.3125 30.9375C25.3125 30.2903 25.8372 29.7656 26.4844 29.7656H27.7344C28.3816 29.7656 28.9062 30.2903 28.9062 30.9375C28.9062 31.5847 28.3816 32.1094 27.7344 32.1094ZM27.7344 27.1094H26.4844C25.8372 27.1094 25.3125 26.5847 25.3125 25.9375C25.3125 25.2903 25.8372 24.7656 26.4844 24.7656H27.7344C28.3816 24.7656 28.9062 25.2903 28.9062 25.9375C28.9062 26.5847 28.3816 27.1094 27.7344 27.1094ZM27.7344 22.1094H26.4844C25.8372 22.1094 25.3125 21.5847 25.3125 20.9375C25.3125 20.2903 25.8372 19.7656 26.4844 19.7656H27.7344C28.3816 19.7656 28.9062 20.2903 28.9062 20.9375C28.9062 21.5847 28.3816 22.1094 27.7344 22.1094ZM33.9844 32.1094H32.7344C32.0872 32.1094 31.5625 31.5847 31.5625 30.9375C31.5625 30.2903 32.0872 29.7656 32.7344 29.7656H33.9844C34.6316 29.7656 35.1562 30.2903 35.1562 30.9375C35.1562 31.5847 34.6316 32.1094 33.9844 32.1094ZM33.9844 27.1094H32.7344C32.0872 27.1094 31.5625 26.5847 31.5625 25.9375C31.5625 25.2903 32.0872 24.7656 32.7344 24.7656H33.9844C34.6316 24.7656 35.1562 25.2903 35.1562 25.9375C35.1562 26.5847 34.6316 27.1094 33.9844 27.1094ZM33.9844 22.1094H32.7344C32.0872 22.1094 31.5625 21.5847 31.5625 20.9375C31.5625 20.2903 32.0872 19.7656 32.7344 19.7656H33.9844C34.6316 19.7656 35.1562 20.2903 35.1562 20.9375C35.1562 21.5847 34.6316 22.1094 33.9844 22.1094Z" fill="#001732"></path>
                                </g>
                                <defs>
                                <clipPath id="clip0_11012_2980">
                                <rect width="40" height="40" fill="white" transform="translate(0.859375)"></rect>
                                </clipPath>
                                </defs>
                            </svg>
