<svg width="5" height="5" viewBox="0 0 20 16" fill="none" xmlns="http://www.w3.org/2000/svg" class="w-3 md:w-5">
                                                <g clip-path="url(#clip0_11019_2045)">
                                                <path d="M18.6672 7.0996C19.1109 7.68009 19.1109 8.46374 18.6672 9.04329C17.2693 10.868 13.9156 14.6253 10.0001 14.6253C6.08468 14.6253 2.73097 10.868 1.33313 9.04329C1.11721 8.76534 1 8.42341 1 8.07145C1 7.71949 1.11721 7.37755 1.33313 7.0996C2.73097 5.27482 6.08468 1.51758 10.0001 1.51758C13.9156 1.51758 17.2693 5.27482 18.6672 7.0996Z" stroke="#001732" stroke-width="1.4" stroke-linecap="round" stroke-linejoin="round"></path>
                                                <path d="M10.0042 10.8794C11.5554 10.8794 12.813 9.62178 12.813 8.07052C12.813 6.51926 11.5554 5.26172 10.0042 5.26172C8.45285 5.26172 7.19531 6.51926 7.19531 8.07052C7.19531 9.62178 8.45285 10.8794 10.0042 10.8794Z" stroke="#001732" stroke-width="1.4" stroke-linecap="round" stroke-linejoin="round"></path>
                                                </g>
                                                <defs>
                                                <clipPath id="clip0_11019_2045">
                                                <rect width="20" height="16" fill="white"></rect>
                                                </clipPath>
                                                </defs>
                                            </svg>
