<svg width="5" height="5" viewBox="0 0 20 21" fill="black" xmlns="http://www.w3.org/2000/svg" class="w-3.5 md:w-5 fill-primary/30 group-hover:fill-primary">
                                <g opacity="" clip-path="url(#clip0_11019_1937)">
                                <path opacity="" d="M19.5853 10.3711L11.0611 1.8514L10.4898 1.28003C10.3596 1.1507 10.1836 1.07812 10.0001 1.07812C9.81657 1.07812 9.6405 1.1507 9.51029 1.28003L0.414826 10.3711C0.281429 10.504 0.176004 10.6623 0.104772 10.8365C0.0335409 11.0108 -0.00205299 11.1976 9.14391e-05 11.3859C0.00891557 12.1624 0.655284 12.7823 1.43181 12.7823H2.36937V19.9673H17.6307V12.7823H18.5881C18.9654 12.7823 19.3205 12.6345 19.5874 12.3675C19.7189 12.2365 19.823 12.0808 19.8939 11.9092C19.9646 11.7377 20.0007 11.5538 20 11.3683C20 10.9932 19.8522 10.638 19.5853 10.3711ZM11.2354 18.379H8.76464V13.8787H11.2354V18.379ZM16.0424 11.194V18.379H12.6473V13.3493C12.6473 12.8617 12.2524 12.4668 11.7649 12.4668H8.23521C7.74771 12.4668 7.35279 12.8617 7.35279 13.3493V18.379H3.95771V11.194H1.83992L10.0022 3.03824L10.5119 3.54783L18.1624 11.194H16.0424Z" fill="#"></path>
                                </g>
                                <defs>
                                <clipPath id="clip0_11019_1937">
                                <rect width="20" height="20" fill="" transform="translate(0 0.394531)"></rect>
                                </clipPath>
                                </defs>
                            </svg>
