<svg class="w-4 h-5 md:w-5 md:h-6 text-black" viewBox="0 0 22 24" fill="black" xmlns="http://www.w3.org/2000/svg">
                            <path d="M8.66595 22.3906H13.3341C12.7802 23.0679 11.939 23.5 11 23.5C10.061 23.5 9.21985 23.0679 8.66595 22.3906Z" stroke="#001732"></path>
                            <path d="M12.6094 3.12516V3.49576L12.964 3.60354C15.7406 4.44752 17.7657 7.03199 17.7657 10.0781V11.6185C17.7657 14.6224 18.9114 17.4725 20.9904 19.6406C21.0467 19.6994 21.0626 19.7861 21.0306 19.8609C20.9987 19.9358 20.9252 19.9844 20.8438 19.9844H1.1563C1.0749 19.9844 1.00136 19.9358 0.969431 19.8609C0.937503 19.7861 0.953319 19.6994 1.00967 19.6407L0.649061 19.2949L1.00968 19.6407C3.08874 17.4725 4.23443 14.6224 4.23443 11.6185V10.0781C4.23443 7.03194 6.25951 4.44752 9.03609 3.60354L9.39068 3.49576V3.12516V2.10938C9.39068 1.22241 10.1131 0.5 11.0001 0.5C11.887 0.5 12.6094 1.22241 12.6094 2.10938V3.12516ZM11.6552 3.34432L12.2032 3.39715V2.84663V2.10938C12.2032 1.44553 11.6639 0.90625 11.0001 0.90625C10.3362 0.90625 9.79693 1.44553 9.79693 2.10938V2.84663V3.39715L10.3449 3.34432C10.561 3.32348 10.7795 3.3125 11.0001 3.3125C11.2206 3.3125 11.4391 3.32348 11.6552 3.34432Z" stroke="#001732"></path>
                        </svg>
