<svg width="12" height="12" viewBox="0 0 41 41" fill="none" xmlns="http://www.w3.org/2000/svg" class="w-3.5 md:w-10">
                                <g clip-path="url(#clip0_11012_2997)">
                                <path d="M16.6364 17.474C21.2163 17.474 24.9291 13.7612 24.9291 9.18133C24.9291 4.60142 21.2163 0.888672 16.6364 0.888672C12.0565 0.888672 8.34375 4.60142 8.34375 9.18133C8.34375 13.7612 12.0565 17.474 16.6364 17.474Z" fill="#001732"></path>
                                <path d="M31.2746 27.2305C27.503 27.2305 24.4453 30.288 24.4453 34.0598C24.4453 37.8315 27.503 40.8891 31.2746 40.8891C35.0461 40.8891 38.1039 37.8315 38.1039 34.0598C38.1038 30.288 35.0461 27.2305 31.2746 27.2305ZM35.177 35.5231H32.738V37.9621H29.8112V35.5231H27.3722V32.5963H29.8112V30.1573H32.738V32.5963H35.177V35.5231Z" fill="#001732"></path>
                                <path d="M29.1655 24.5326C26.6005 20.3008 21.9518 17.4727 16.642 17.4727C8.55984 17.4727 2.00781 24.0247 2.00781 32.1068C2.00781 34.262 3.75516 36.0092 5.91023 36.0092H21.7162C21.5876 35.3786 21.52 34.7261 21.52 34.058C21.52 29.403 24.7973 25.4998 29.1655 24.5326Z" fill="#001732"></path>
                                </g>
                                <defs>
                                <clipPath id="clip0_11012_2997">
                                <rect width="40" height="40" fill="white" transform="translate(0.0546875 0.888672)"></rect>
                                </clipPath>
                                </defs>
                            </svg>
