<svg width="12" height="12" viewBox="0 0 41 40" fill="none" xmlns="http://www.w3.org/2000/svg" class="w-3.5 md:w-10">
                                <path d="M34.7188 0H5.65625C3.71797 0 2.14062 1.57734 2.14062 3.51562V5.07812H38.2344V3.51562C38.2344 1.57734 36.657 0 34.7188 0Z" fill="#001732"></path>
                                <path d="M2.14062 36.2891C2.14062 38.3352 3.80547 40 5.85156 40H7.76562V32.5781H5.85156C3.80547 32.5781 2.14062 34.243 2.14062 36.2891Z" fill="#001732"></path>
                                <path d="M10.1094 32.5781H30.2656V40H10.1094V32.5781Z" fill="#001732"></path>
                                <path d="M36.9617 35.2012L32.6094 33.0254V39.5418L36.9742 37.291C37.8269 36.8511 37.8163 35.6294 36.9617 35.2012Z" fill="#001732"></path>
                                <path d="M2.14062 26.4062C2.14062 28.3445 3.71797 29.9219 5.65625 29.9219H34.7188C36.657 29.9219 38.2344 28.3445 38.2344 26.4062V7.42188H2.14062V26.4062ZM14.5625 11.3281H32.0625C32.7097 11.3281 33.2344 11.8528 33.2344 12.5C33.2344 13.1472 32.7097 13.6719 32.0625 13.6719H14.5625C13.9153 13.6719 13.3906 13.1472 13.3906 12.5C13.3906 11.8528 13.9153 11.3281 14.5625 11.3281ZM8.3125 17.5781H32.0625C32.7097 17.5781 33.2344 18.1028 33.2344 18.75C33.2344 19.3972 32.7097 19.9219 32.0625 19.9219H8.3125C7.66531 19.9219 7.14062 19.3972 7.14062 18.75C7.14062 18.1028 7.66531 17.5781 8.3125 17.5781ZM8.3125 23.8281H25.8125C26.4597 23.8281 26.9844 24.3528 26.9844 25C26.9844 25.6472 26.4597 26.1719 25.8125 26.1719H8.3125C7.66531 26.1719 7.14062 25.6472 7.14062 25C7.14062 24.3528 7.66531 23.8281 8.3125 23.8281Z" fill="#001732"></path>
                            </svg>
