<svg width="16" height="17" viewBox="0 0 16 17" fill="none" xmlns="http://www.w3.org/2000/svg">
                <g clip-path="url(#clip0_11019_1667)">
                <path d="M5.62485 0.394531C8.72639 0.394531 11.2497 2.91784 11.2497 6.01938C11.2497 7.3455 10.7881 8.56562 10.0176 9.52828L10.9902 10.5009C11.673 10.174 12.5367 10.2796 13.1246 10.8676L15.4504 13.1934C16.1832 13.9261 16.1832 15.1121 15.4504 15.845C14.7177 16.5777 13.5317 16.5778 12.7988 15.845L10.473 13.5192C9.88477 12.9309 9.77968 12.0671 10.1064 11.3848L9.13373 10.4121C8.17107 11.1827 6.95094 11.6442 5.62485 11.6442C2.52331 11.6442 8.58307e-06 9.12092 8.58307e-06 6.01938C8.58307e-06 2.91784 2.52331 0.394531 5.62485 0.394531ZM11.3569 12.6353L13.6827 14.9611C13.9263 15.2048 14.3229 15.2048 14.5665 14.9611C14.8102 14.7174 14.8102 14.3209 14.5665 14.0772L12.2407 11.7514C11.9966 11.5072 11.6012 11.5072 11.3569 11.7515C11.1127 11.9956 11.1126 12.391 11.3569 12.6353ZM5.62485 10.3943C8.03716 10.3943 9.99973 8.43169 9.99973 6.01938C9.99973 3.60707 8.03716 1.6445 5.62485 1.6445C3.21254 1.6445 1.24997 3.60707 1.24997 6.01938C1.24997 8.43169 3.21251 10.3943 5.62485 10.3943Z" fill="#001732" fill-opacity="0.5"></path>
                </g>
                <defs>
                <clipPath id="clip0_11019_1667">
                <rect width="16" height="16" fill="white" transform="matrix(-1 0 0 1 16 0.394531)"></rect>
                </clipPath>
                </defs>
            </svg>
