<svg width="5" height="5" viewBox="0 0 16 16" fill="none" xmlns="http://www.w3.org/2000/svg" class="w-3 md:w-4">
                                                <g clip-path="url(#clip0_11019_2060)">
                                                <path d="M8.2017 3.22814V3.68404L7.74773 3.72602C6.75796 3.81754 4.92807 4.1268 3.35844 5.15594C1.81952 6.16495 0.500177 7.88222 0.500177 10.8947L0.500051 10.9059C0.499091 10.9485 0.511777 10.9904 0.53626 11.0253C0.56027 11.0596 0.594395 11.0854 0.633827 11.0992C0.672875 11.1115 0.714753 11.1114 0.753811 11.0991C0.793651 11.0866 0.82856 11.0619 0.853648 11.0285L0.86481 11.0136L0.877044 10.9996C1.65306 10.1122 2.61289 9.40433 3.68991 8.92508C4.76577 8.44635 5.93282 8.2072 7.11024 8.22422H7.7017H8.2017V8.72422V10.8933C8.202 10.9324 8.21375 10.9706 8.23549 11.0031C8.25737 11.0358 8.2884 11.0613 8.3247 11.0764C8.361 11.0916 8.40097 11.0957 8.43961 11.0883C8.47767 11.081 8.51278 11.0628 8.54068 11.0359L13.4393 6.13723L13.4408 6.13578C13.4596 6.11718 13.4744 6.09504 13.4846 6.07064C13.4948 6.04626 13.5 6.0201 13.5 5.99368C13.5 5.96725 13.4948 5.94111 13.4846 5.91672C13.4744 5.89232 13.4596 5.87018 13.4408 5.85158L13.4393 5.85013L8.53983 0.950611C8.53966 0.950445 8.53999 0.950776 8.53983 0.950611C8.50285 0.914193 8.45267 0.893069 8.40078 0.892578C8.34808 0.892854 8.2976 0.913909 8.26032 0.951194C8.22278 0.988728 8.2017 1.03964 8.2017 1.09272V3.22814ZM7.10814 7.80996L7.10414 7.80994C5.24215 7.80084 3.42692 8.39277 1.92822 9.49774L0.808587 10.3232L1.14647 8.97385C1.74404 6.58743 3.43152 5.36146 5.00444 4.74329C6.56549 4.1298 8.05721 4.09341 8.40184 4.09341C8.45492 4.09341 8.50582 4.07231 8.54336 4.03479C8.58089 3.99726 8.60197 3.94635 8.60197 3.89327V2.78005V1.57108L9.45591 2.42688L12.6625 5.64051L13.0149 5.99368L12.6625 6.34685L9.45591 9.56049L8.60197 10.4163V9.20732V8.09409C8.60204 8.04617 8.5849 7.99916 8.55369 7.9628C8.52314 7.92723 8.48111 7.90353 8.43494 7.89579C7.99512 7.83723 7.55184 7.80855 7.10814 7.80996Z" fill="#001732"></path>
                                                <path d="M8.53983 0.950611L13.4393 5.85013L13.4408 5.85158C13.4596 5.87018 13.4744 5.89233 13.4846 5.91672C13.4948 5.94111 13.5 5.96725 13.5 5.99368C13.5 6.0201 13.4948 6.04626 13.4846 6.07064C13.4744 6.09503 13.4596 6.11718 13.4408 6.13578L13.4393 6.13723L8.54068 11.0359C8.51278 11.0628 8.47767 11.081 8.43961 11.0883C8.40097 11.0957 8.361 11.0916 8.3247 11.0764C8.2884 11.0613 8.25737 11.0358 8.23549 11.0031C8.21375 10.9706 8.202 10.9324 8.2017 10.8933V8.72422V8.22422H7.7017H7.11024C5.93282 8.20721 4.76577 8.44635 3.68991 8.92508C2.61289 9.40433 1.65306 10.1122 0.877044 10.9996L0.86481 11.0136L0.853648 11.0285C0.82856 11.0619 0.793651 11.0866 0.753811 11.0991C0.714753 11.1114 0.672875 11.1115 0.633827 11.0992C0.594395 11.0854 0.56027 11.0596 0.53626 11.0253C0.511777 10.9904 0.499091 10.9485 0.500051 10.9059L0.500177 10.8947C0.500177 7.88222 1.81952 6.16495 3.35844 5.15594C4.92807 4.1268 6.75796 3.81754 7.74773 3.72602L8.2017 3.68404V3.22814V1.09272C8.2017 1.03964 8.22278 0.988728 8.26032 0.951194C8.2976 0.913909 8.34808 0.892854 8.40078 0.892578C8.45267 0.893069 8.50285 0.914193 8.53983 0.950611ZM8.53983 0.950611C8.53966 0.950445 8.53999 0.950776 8.53983 0.950611ZM7.10814 7.80996L7.10414 7.80994C5.24215 7.80084 3.42692 8.39277 1.92822 9.49774L0.808587 10.3232L1.14647 8.97385C1.74404 6.58743 3.43152 5.36146 5.00444 4.74329C6.56549 4.12979 8.05721 4.09341 8.40184 4.09341C8.45492 4.09341 8.50582 4.07232 8.54336 4.03479C8.58089 3.99726 8.60197 3.94635 8.60197 3.89327V2.78005V1.57108L9.45591 2.42688L12.6625 5.64051L13.0149 5.99368L12.6625 6.34685L9.45591 9.56049L8.60197 10.4163V9.20732V8.09409C8.60204 8.04617 8.5849 7.99916 8.55369 7.9628C8.52314 7.92723 8.48111 7.90353 8.43494 7.89579C7.99512 7.83723 7.55184 7.80855 7.10814 7.80996Z" stroke="#001732"></path>
                                                </g>
                                                <defs>
                                                <clipPath id="clip0_11019_2060">
                                                <rect width="16" height="16" fill="white"></rect>
                                                </clipPath>
                                                </defs>
                                            </svg>
