<svg width="13" height="13" viewBox="0 0 13 13" fill="none" xmlns="http://www.w3.org/2000/svg">
                                <path d="M2.53399 1.98833C2.53382 2.32228 2.401 2.64249 2.16474 2.87852C1.92848 3.11454 1.60813 3.24705 1.27418 3.24688C0.940221 3.24671 0.62001 3.11389 0.383986 2.87763C0.147961 2.64137 0.0154582 2.32102 0.0156252 1.98707C0.0157921 1.65311 0.148616 1.3329 0.384876 1.09688C0.621136 0.860852 0.941481 0.728349 1.27544 0.728516C1.60939 0.728683 1.9296 0.861506 2.16563 1.09777C2.40165 1.33403 2.53416 1.65437 2.53399 1.98833ZM2.57176 4.1793H0.0534006V12.0618H2.57176V4.1793ZM6.55078 4.1793H4.04501V12.0618H6.52559V7.92537C6.52559 5.62107 9.52874 5.407 9.52874 7.92537V12.0618H12.0156V7.06912C12.0156 3.18455 7.57071 3.32936 6.52559 5.23702L6.55078 4.1793Z" fill="white"></path>
                            </svg>
