<svg width="14" height="14" viewBox="0 0 14 14" fill="none" xmlns="http://www.w3.org/2000/svg">
                                <g clip-path="url(#clip0_11068_11951)">
                                    <path d="M5.22395 9.11983C5.70791 9.11983 6.10024 8.72749 6.10024 8.24351C6.10024 7.75953 5.70791 7.36719 5.22395 7.36719C4.73999 7.36719 4.34766 7.75953 4.34766 8.24351C4.34766 8.72749 4.73999 9.11983 5.22395 9.11983Z" fill="white"></path>
                                    <path d="M13.6597 7.53527C13.6597 6.4529 12.8077 5.57242 11.7604 5.57242C11.3929 5.57242 11.0518 5.68366 10.7613 5.86989C9.86023 5.34663 8.72392 5.02155 7.48296 4.97705L8.1982 2.92355L9.67977 3.2783C9.67483 3.32733 9.66535 3.3743 9.66535 3.42457C9.66535 4.24119 10.3299 4.90577 11.1469 4.90577C11.9627 4.90577 12.6285 4.2416 12.6285 3.42457C12.6285 2.60753 11.9631 1.94336 11.1469 1.94336C10.6142 1.94336 10.1511 2.22765 9.89031 2.64997L7.77178 2.14319L6.78297 4.98117C5.54777 5.04462 4.42341 5.38907 3.53925 5.92634C3.55696 5.91398 3.57221 5.89997 3.58993 5.88761C3.29246 5.68902 2.93937 5.572 2.5595 5.572C1.51177 5.572 0.660156 6.45208 0.660156 7.53486C0.660156 8.25878 1.04538 8.88669 1.61271 9.22578C1.84508 11.2496 4.25737 12.847 7.19497 12.847C10.1515 12.847 12.5762 11.2282 12.7814 9.18582C13.3079 8.83848 13.6597 8.22911 13.6597 7.53527ZM11.1461 2.60341C11.5989 2.60341 11.9676 2.97217 11.9676 3.42539C11.9676 3.8782 11.5985 4.24695 11.1461 4.24695C10.6917 4.24695 10.3237 3.8782 10.3237 3.42539C10.3237 2.97176 10.6929 2.60341 11.1461 2.60341ZM2.55909 6.23165C2.70865 6.23165 2.84955 6.26419 2.98222 6.31529C2.26533 6.89005 1.78369 7.61108 1.63867 8.4071C1.44049 8.17555 1.31813 7.87065 1.31813 7.53527C1.31813 6.81671 1.87516 6.23165 2.55909 6.23165ZM7.19415 12.1886C4.46626 12.1886 2.24761 10.7169 2.24761 8.9077C2.24761 7.09812 4.46626 5.6268 7.19415 5.6268C9.92162 5.6268 12.1399 7.09853 12.1399 8.9077C12.1399 10.7165 9.92162 12.1886 7.19415 12.1886ZM12.7336 8.33541C12.5716 7.56082 12.0912 6.85997 11.3855 6.29963C11.5045 6.25925 11.629 6.23165 11.7604 6.23165C12.4439 6.23165 13.0005 6.8163 13.0005 7.53527C12.9997 7.83769 12.8984 8.11416 12.7336 8.33541Z" fill="white"></path>
                                    <path d="M8.98957 9.11983C9.47354 9.11983 9.86587 8.72749 9.86587 8.24351C9.86587 7.75953 9.47354 7.36719 8.98957 7.36719C8.50561 7.36719 8.11328 7.75953 8.11328 8.24351C8.11328 8.72749 8.50561 9.11983 8.98957 9.11983Z" fill="white"></path>
                                    <path d="M8.84976 10.1913C6.99409 11.4162 5.49687 10.2621 5.43012 10.2098C5.28798 10.0957 5.08115 10.1183 4.96744 10.2597C4.85373 10.4022 4.87515 10.6091 5.01688 10.7232C5.02924 10.7335 5.88456 11.4059 7.12676 11.4059C7.74435 11.4059 8.45836 11.239 9.21233 10.7417C9.36436 10.6412 9.40638 10.4368 9.30668 10.2856C9.20574 10.1332 9.00138 10.0907 8.84976 10.1913Z" fill="white"></path>
                                </g>
                                <defs>
                                    <clipPath id="clip0_11068_11951">
                                        <rect width="13" height="13" fill="white" transform="translate(0.660156 0.894531)"></rect>
                                    </clipPath>
                                </defs>
                            </svg>
