<svg width="13" height="13" viewBox="0 0 13 13" fill="none" xmlns="http://www.w3.org/2000/svg">
                                <g clip-path="url(#clip0_11068_11937)">
                                    <path d="M0.274455 6.1797L3.0395 7.2117L4.10974 10.6536C4.17822 10.874 4.44778 10.9555 4.6267 10.8092L6.16798 9.55274C6.32954 9.4211 6.55966 9.41454 6.7285 9.5371L9.50842 11.5554C9.69982 11.6945 9.97098 11.5896 10.019 11.3583L12.0554 1.5627C12.1078 1.31006 11.8596 1.0993 11.619 1.19234L0.271215 5.56998C-0.0088246 5.67798 -0.0063846 6.07446 0.274455 6.1797ZM3.93726 6.66234L9.34118 3.33406C9.4383 3.27442 9.53822 3.40574 9.45482 3.4831L4.99502 7.6287C4.83826 7.77462 4.73714 7.9699 4.7085 8.18186L4.55658 9.3077C4.53646 9.45802 4.3253 9.47294 4.28382 9.32746L3.69954 7.27446C3.63262 7.0403 3.73014 6.79018 3.93726 6.66234Z" fill="white"></path>
                                </g>
                                <defs>
                                    <clipPath id="clip0_11068_11937">
                                        <rect width="12" height="12" fill="white" transform="translate(0.0625 0.394531)"></rect>
                                    </clipPath>
                                </defs>
                            </svg>
