<svg width="25" height="25" viewBox="0 0 25 25" fill="none" xmlns="http://www.w3.org/2000/svg">
                                <rect x="0.0898438" y="0.394531" width="24" height="24" rx="2" fill="#001732" fill-opacity=""></rect>
                                <path d="M15.0314 13.6681C14.8733 13.5869 14.0854 13.201 13.9389 13.1487C13.7923 13.0936 13.685 13.0675 13.5791 13.23C13.4717 13.391 13.167 13.7494 13.0713 13.8582C12.9784 13.9656 12.8841 13.9786 12.726 13.8988C11.7858 13.4287 11.1692 13.0602 10.5496 11.9967C10.3857 11.7138 10.7136 11.7341 11.0197 11.1233C11.072 11.0159 11.0458 10.9245 11.0052 10.8433C10.9646 10.762 10.6454 9.97566 10.5119 9.65502C10.3828 9.34308 10.2493 9.38661 10.1521 9.3808C10.0592 9.375 9.95333 9.375 9.84597 9.375C9.73861 9.375 9.56595 9.41562 9.41941 9.57377C9.27287 9.73482 8.85938 10.1222 8.85938 10.9086C8.85938 11.6949 9.43247 12.4567 9.51082 12.564C9.59207 12.6714 10.6381 14.2848 12.2443 14.9797C13.2599 15.4179 13.6574 15.4556 14.1652 15.3802C14.4743 15.3337 15.1112 14.9942 15.2432 14.6185C15.3753 14.2441 15.3753 13.9235 15.3361 13.8568C15.2969 13.7857 15.1895 13.745 15.0314 13.6681Z" fill="white"></path>
                                <path d="M18.0849 9.87573C17.757 9.09661 17.2869 8.39729 16.6877 7.79663C16.0885 7.19742 15.3891 6.72588 14.6086 6.39944C13.8106 6.06428 12.9633 5.89453 12.0898 5.89453H12.0608C11.1816 5.89888 10.3299 6.07299 9.52905 6.4154C8.75573 6.74619 8.06222 7.21628 7.46881 7.81549C6.8754 8.4147 6.40967 9.11112 6.08758 9.88734C5.75387 10.6911 5.58557 11.5457 5.58993 12.4249C5.59428 13.4318 5.83512 14.4315 6.28635 15.3252V17.5305C6.28635 17.8991 6.58523 18.1979 6.95375 18.1979H9.16053C10.0543 18.6492 11.0539 18.89 12.0608 18.8944H12.0913C12.9604 18.8944 13.8033 18.7261 14.597 18.3967C15.3732 18.0732 16.071 17.6089 16.6688 17.0155C17.268 16.4221 17.7395 15.7286 18.0689 14.9552C18.4113 14.1544 18.5854 13.3027 18.5898 12.4235C18.5941 11.5399 18.4229 10.6824 18.0849 9.87573ZM15.8926 16.2306C14.8755 17.2375 13.5262 17.7917 12.0898 17.7917H12.0652C11.1903 17.7873 10.3212 17.5697 9.55372 17.1606L9.43184 17.0953H7.38901V15.0525L7.32372 14.9306C6.91457 14.1631 6.69694 13.294 6.69259 12.4191C6.68679 10.9726 7.23957 9.61457 8.25373 8.59171C9.26644 7.56884 10.6201 7.003 12.0666 6.9972H12.0913C12.8167 6.9972 13.5204 7.13793 14.1835 7.4165C14.8305 7.68781 15.4109 8.0781 15.91 8.5772C16.4076 9.07485 16.7994 9.65665 17.0707 10.3037C17.3522 10.974 17.4929 11.685 17.49 12.4191C17.4813 13.8642 16.914 15.2179 15.8926 16.2306Z" fill="white"></path>
                            </svg>
